<svg width="17" height="17" viewBox="0 0 17 17" fill="none" xmlns="http://www.w3.org/2000/svg">
<path d="M4.95882 3.81608C4.93987 4.04149 4.61187 4.09848 4.50637 3.8947L3.9383 2.79756C3.90156 2.72647 3.8267 2.67897 3.74204 2.67281L2.4348 2.57799C2.19196 2.56038 2.13057 2.25591 2.35011 2.15796L3.53191 1.63063C3.60844 1.59647 3.65972 1.52705 3.66628 1.44843L3.76845 0.234833C3.7874 0.00942257 4.11541 -0.0475714 4.2209 0.156214L4.78897 1.25335C4.82571 1.32444 4.90048 1.37196 4.98523 1.3781L6.29247 1.47293C6.53531 1.49053 6.5967 1.79501 6.37716 1.89295L5.19536 2.42028C5.11873 2.45446 5.06755 2.52387 5.06099 2.60248L4.95882 3.81608Z" fill="#4991FF"/>
<path d="M1.20599 4.64419C1.17434 4.75335 1.00749 4.75335 0.975834 4.64419L0.805364 4.05647C0.794352 4.01839 0.76227 3.98866 0.721273 3.9784L0.088205 3.82016C-0.0293986 3.79077 -0.0293986 3.63589 0.088205 3.6065L0.721273 3.44826C0.76227 3.43801 0.794352 3.40827 0.805364 3.37019L0.975834 2.78247C1.00749 2.67331 1.17434 2.67331 1.20599 2.78247L1.37646 3.37019C1.38747 3.40827 1.41951 3.43801 1.46055 3.44826L2.09362 3.6065C2.21122 3.63589 2.21122 3.79077 2.09362 3.82016L1.46055 3.9784C1.41951 3.98866 1.38747 4.01839 1.37646 4.05647L1.20599 4.64419Z" fill="#4991FF"/>
<path d="M3.38781 8.01995C3.35616 8.12911 3.18931 8.12911 3.15765 8.01995L2.98718 7.43223C2.97617 7.39416 2.94409 7.36442 2.90309 7.35416L2.27002 7.19592C2.15242 7.16653 2.15242 7.01165 2.27002 6.98226L2.90309 6.82402C2.94409 6.81377 2.97617 6.78403 2.98718 6.74595L3.15765 6.15824C3.18931 6.04908 3.35616 6.04908 3.38781 6.15824L3.55828 6.74595C3.56929 6.78403 3.60132 6.81377 3.64237 6.82402L4.27544 6.98226C4.39304 7.01165 4.39304 7.16653 4.27544 7.19592L3.64237 7.35416C3.60132 7.36442 3.56929 7.39416 3.55828 7.43223L3.38781 8.01995Z" fill="#4991FF"/>
<path d="M1.53127 6.69694C1.51016 6.76972 1.39893 6.76972 1.37783 6.69694L1.26418 6.30513C1.25684 6.27975 1.23545 6.25992 1.20812 6.25309L0.786076 6.14759C0.707674 6.128 0.707674 6.02475 0.786076 6.00515L1.20812 5.89966C1.23545 5.89282 1.25684 5.873 1.26418 5.84761L1.37783 5.4558C1.39893 5.38303 1.51016 5.38303 1.53127 5.4558L1.64491 5.84761C1.65225 5.873 1.67361 5.89282 1.70097 5.89966L2.12302 6.00515C2.20142 6.02475 2.20142 6.128 2.12302 6.14759L1.70097 6.25309C1.67361 6.25992 1.65225 6.27975 1.64491 6.30513L1.53127 6.69694Z" fill="#4991FF"/>
<path d="M6.62218 5.34663C6.60107 5.41941 6.48984 5.41941 6.46874 5.34663L6.35509 4.95482C6.34775 4.92944 6.32636 4.90961 6.29903 4.90278L5.87699 4.79728C5.79858 4.77769 5.79858 4.67444 5.87699 4.65484L6.29903 4.54935C6.32636 4.54251 6.34775 4.52269 6.35509 4.4973L6.46874 4.10549C6.48984 4.03272 6.60107 4.03272 6.62218 4.10549L6.73582 4.4973C6.74316 4.52269 6.76452 4.54251 6.79188 4.54935L7.21393 4.65484C7.29233 4.67444 7.29233 4.77769 7.21393 4.79728L6.79188 4.90278C6.76452 4.90961 6.74316 4.92944 6.73582 4.95482L6.62218 5.34663Z" fill="#4991FF"/>
<path d="M13.8182 13.503L13.0909 14.1782M3.65777 4.5423L15.4624 14.5877C15.7555 14.8371 15.7654 15.263 15.4843 15.5239V15.5239C15.2043 15.7839 14.7496 15.7778 14.4805 15.508C10.4047 11.4231 3.22842 4.20749 3.65777 4.5423Z" stroke="#4991FF"/>
</svg>
