<svg width="17" height="17" viewBox="0 0 17 17" fill="none" xmlns="http://www.w3.org/2000/svg">
<path d="M5.54523 3.81619C5.52628 4.0416 5.19828 4.09859 5.09278 3.89481L4.52471 2.79767C4.48797 2.72658 4.41311 2.67907 4.32845 2.67292L3.02121 2.57809C2.77837 2.56049 2.71698 2.25601 2.93652 2.15807L4.11832 1.63074C4.19485 1.59658 4.24613 1.52715 4.25269 1.44854L4.35486 0.23494C4.37382 0.00952938 4.70182 -0.0474646 4.80731 0.156321L5.37538 1.25346C5.41212 1.32455 5.48689 1.37207 5.57164 1.37821L6.87888 1.47303C7.12172 1.49064 7.18311 1.79511 6.96357 1.89306L5.78177 2.42039C5.70515 2.45457 5.65396 2.52397 5.6474 2.60259L5.54523 3.81619Z" fill="white"/>
<path d="M1.79242 4.6442C1.76076 4.75336 1.59392 4.75336 1.56226 4.6442L1.39179 4.05649C1.38078 4.01841 1.3487 3.98867 1.3077 3.97842L0.674635 3.82018C0.557031 3.79079 0.557031 3.63591 0.674635 3.60652L1.3077 3.44828C1.3487 3.43802 1.38078 3.40828 1.39179 3.37021L1.56226 2.78249C1.59392 2.67333 1.76076 2.67333 1.79242 2.78249L1.96289 3.37021C1.9739 3.40828 2.00593 3.43802 2.04698 3.44828L2.68005 3.60652C2.79765 3.63591 2.79765 3.79079 2.68005 3.82018L2.04698 3.97842C2.00593 3.98867 1.9739 4.01841 1.96289 4.05649L1.79242 4.6442Z" fill="white"/>
<path d="M3.97424 8.01993C3.94259 8.1291 3.77574 8.1291 3.74409 8.01993L3.57362 7.43222C3.5626 7.39414 3.53052 7.3644 3.48953 7.35415L2.85646 7.19591C2.73885 7.16652 2.73885 7.01164 2.85646 6.98225L3.48953 6.82401C3.53052 6.81375 3.5626 6.78402 3.57362 6.74594L3.74409 6.15822C3.77574 6.04906 3.94259 6.04906 3.97424 6.15822L4.14471 6.74594C4.15572 6.78402 4.18776 6.81375 4.2288 6.82401L4.86187 6.98225C4.97947 7.01164 4.97947 7.16652 4.86187 7.19591L4.2288 7.35415C4.18776 7.3644 4.15572 7.39414 4.14471 7.43222L3.97424 8.01993Z" fill="white"/>
<path d="M2.1177 6.69688C2.09659 6.76966 1.98536 6.76966 1.96426 6.69688L1.85061 6.30507C1.84327 6.27969 1.82188 6.25986 1.79455 6.25303L1.37251 6.14753C1.2941 6.12794 1.2941 6.02469 1.37251 6.00509L1.79455 5.8996C1.82188 5.89276 1.84327 5.87294 1.85061 5.84755L1.96426 5.45574C1.98536 5.38297 2.09659 5.38297 2.1177 5.45574L2.23134 5.84755C2.23868 5.87294 2.26004 5.89276 2.2874 5.8996L2.70945 6.00509C2.78785 6.02469 2.78785 6.12794 2.70945 6.14753L2.2874 6.25303C2.26004 6.25986 2.23868 6.27969 2.23134 6.30507L2.1177 6.69688Z" fill="white"/>
<path d="M7.20858 5.34654C7.18747 5.41932 7.07624 5.41932 7.05514 5.34654L6.94149 4.95473C6.93415 4.92935 6.91276 4.90952 6.88543 4.90268L6.46339 4.79719C6.38498 4.7776 6.38498 4.67434 6.46339 4.65475L6.88543 4.54926C6.91276 4.54242 6.93415 4.5226 6.94149 4.49721L7.05514 4.1054C7.07624 4.03263 7.18747 4.03263 7.20858 4.1054L7.32222 4.49721C7.32956 4.5226 7.35092 4.54242 7.37828 4.54926L7.80033 4.65475C7.87873 4.67434 7.87873 4.7776 7.80033 4.79719L7.37828 4.90268C7.35092 4.90952 7.32956 4.92935 7.32222 4.95473L7.20858 5.34654Z" fill="white"/>
<path d="M14.4046 13.5032L13.6773 14.1783M4.2442 4.5424L16.0489 14.5878C16.3419 14.8372 16.3519 15.2631 16.0708 15.524V15.524C15.7907 15.784 15.336 15.7779 15.0669 15.5081C10.9912 11.4232 3.81485 4.20759 4.2442 4.5424Z" stroke="white"/>
</svg>
